<svg xmlns="http://www.w3.org/2000/svg" xmlns:xlink="http://www.w3.org/1999/xlink" width="500" zoomAndPan="magnify" viewBox="0 0 375 374.999991" height="500" preserveAspectRatio="xMidYMid meet" version="1.0"><defs><g/><clipPath id="136f0e2ef9"><path d="M 13 73 L 211 73 L 211 277 L 13 277 Z M 13 73 " clip-rule="nonzero"/></clipPath><clipPath id="ec2aa5f518"><path d="M 161.386719 20.335938 L 247.316406 256.433594 L 23.902344 337.746094 L -62.023438 101.644531 Z M 161.386719 20.335938 " clip-rule="nonzero"/></clipPath><clipPath id="d6656910f5"><path d="M 161.386719 20.335938 L 247.316406 256.433594 L 23.902344 337.746094 L -62.023438 101.644531 Z M 161.386719 20.335938 " clip-rule="nonzero"/></clipPath><clipPath id="7d4b209719"><path d="M 168 92 L 251 92 L 251 164 L 168 164 Z M 168 92 " clip-rule="nonzero"/></clipPath><clipPath id="2f758e6c10"><path d="M 250.160156 90.890625 L 251.5 163.628906 L 169.765625 165.136719 L 168.421875 92.398438 Z M 250.160156 90.890625 " clip-rule="nonzero"/></clipPath><clipPath id="d13e48a1c5"><path d="M 250.160156 90.890625 L 251.5 163.628906 L 169.765625 165.136719 L 168.421875 92.398438 Z M 250.160156 90.890625 " clip-rule="nonzero"/></clipPath></defs><g fill="#022641" fill-opacity="1"><g transform="translate(172.676811, 199.599726)"><g><path d="M 3.375 0 L 3.375 -28.53125 L 20.484375 -28.53125 L 20.484375 -23.09375 L 9.703125 -23.203125 L 9.53125 -17.125 L 19.484375 -17.125 L 19.484375 -11.765625 L 9.53125 -11.765625 L 9.703125 -5.359375 L 20.484375 -5.4375 L 20.484375 0 Z M 3.375 0 "/></g></g></g><g fill="#022641" fill-opacity="1"><g transform="translate(195.03893, 199.599726)"><g><path d="M 21.828125 -22.84375 C 18.472656 -23.25 15.898438 -23.453125 14.109375 -23.453125 C 12.328125 -23.453125 11.128906 -23.207031 10.515625 -22.71875 C 9.296875 -21.75 8.6875 -18.800781 8.6875 -13.875 C 8.6875 -11.632812 8.878906 -9.796875 9.265625 -8.359375 C 9.660156 -6.921875 10.148438 -5.984375 10.734375 -5.546875 C 11.316406 -5.117188 12.179688 -4.90625 13.328125 -4.90625 C 14.472656 -4.90625 15.734375 -5.085938 17.109375 -5.453125 C 18.492188 -5.816406 20.066406 -6.351562 21.828125 -7.0625 L 23.65625 -2.265625 C 23.332031 -2.054688 22.875 -1.796875 22.28125 -1.484375 C 21.6875 -1.171875 20.507812 -0.753906 18.75 -0.234375 C 16.988281 0.273438 15.253906 0.53125 13.546875 0.53125 C 9.921875 0.53125 7.09375 -0.628906 5.0625 -2.953125 C 3.039062 -5.285156 2.03125 -8.96875 2.03125 -14 C 2.03125 -18.757812 2.785156 -22.316406 4.296875 -24.671875 C 5.003906 -25.773438 5.890625 -26.660156 6.953125 -27.328125 C 8.023438 -27.992188 9.132812 -28.445312 10.28125 -28.6875 C 11.4375 -28.925781 12.648438 -29.046875 13.921875 -29.046875 C 15.191406 -29.046875 16.6875 -28.941406 18.40625 -28.734375 C 20.125 -28.535156 21.492188 -28.304688 22.515625 -28.046875 Z M 21.828125 -22.84375 "/></g></g></g><g fill="#022641" fill-opacity="1"><g transform="translate(220.120225, 199.599726)"><g><path d="M 3.375 -28.53125 L 11.328125 -28.53125 L 20.125 -8.28125 L 20.375 -8.28125 L 19.890625 -28.53125 L 25.765625 -28.53125 L 25.765625 0 L 17.8125 0 L 9.015625 -20.25 L 8.765625 -20.25 L 9.25 0 L 3.375 0 Z M 3.375 -28.53125 "/></g></g></g><g fill="#022641" fill-opacity="1"><g transform="translate(249.178811, 199.599726)"><g><path d="M 18.921875 -0.109375 C 17.554688 0.316406 15.984375 0.53125 14.203125 0.53125 C 12.421875 0.53125 10.84375 0.316406 9.46875 -0.109375 C 8.101562 -0.546875 6.84375 -1.296875 5.6875 -2.359375 C 3.25 -4.515625 2.03125 -8.503906 2.03125 -14.328125 C 2.03125 -20.867188 3.707031 -25.195312 7.0625 -27.3125 C 8.875 -28.46875 11.253906 -29.046875 14.203125 -29.046875 C 18.828125 -29.046875 22.097656 -27.585938 24.015625 -24.671875 C 25.585938 -22.285156 26.375 -18.835938 26.375 -14.328125 C 26.375 -8.503906 25.15625 -4.515625 22.71875 -2.359375 C 21.5625 -1.296875 20.296875 -0.546875 18.921875 -0.109375 Z M 10.96875 -22.796875 C 10.226562 -22.367188 9.65625 -21.484375 9.25 -20.140625 C 8.84375 -18.804688 8.640625 -16.847656 8.640625 -14.265625 C 8.640625 -11.679688 8.847656 -9.710938 9.265625 -8.359375 C 9.691406 -7.003906 10.273438 -6.117188 11.015625 -5.703125 C 11.765625 -5.285156 12.828125 -5.078125 14.203125 -5.078125 C 15.578125 -5.078125 16.632812 -5.289062 17.375 -5.71875 C 18.96875 -6.632812 19.765625 -9.476562 19.765625 -14.25 C 19.765625 -19.0625 18.992188 -21.914062 17.453125 -22.8125 C 16.691406 -23.238281 15.609375 -23.453125 14.203125 -23.453125 C 12.796875 -23.453125 11.71875 -23.234375 10.96875 -22.796875 Z M 10.96875 -22.796875 "/></g></g></g><g fill="#022641" fill-opacity="1"><g transform="translate(277.588047, 199.599726)"><g><path d="M 0.25 -28.53125 L 6.9375 -28.53125 L 12.015625 -5.96875 L 12.25 -5.96875 L 17.328125 -28.53125 L 24.0625 -28.53125 L 15.984375 0 L 8.203125 0 Z M 0.25 -28.53125 "/></g></g></g><g fill="#022641" fill-opacity="1"><g transform="translate(302.304073, 199.599726)"><g><path d="M 18.921875 -0.109375 C 17.554688 0.316406 15.984375 0.53125 14.203125 0.53125 C 12.421875 0.53125 10.84375 0.316406 9.46875 -0.109375 C 8.101562 -0.546875 6.84375 -1.296875 5.6875 -2.359375 C 3.25 -4.515625 2.03125 -8.503906 2.03125 -14.328125 C 2.03125 -20.867188 3.707031 -25.195312 7.0625 -27.3125 C 8.875 -28.46875 11.253906 -29.046875 14.203125 -29.046875 C 18.828125 -29.046875 22.097656 -27.585938 24.015625 -24.671875 C 25.585938 -22.285156 26.375 -18.835938 26.375 -14.328125 C 26.375 -8.503906 25.15625 -4.515625 22.71875 -2.359375 C 21.5625 -1.296875 20.296875 -0.546875 18.921875 -0.109375 Z M 10.96875 -22.796875 C 10.226562 -22.367188 9.65625 -21.484375 9.25 -20.140625 C 8.84375 -18.804688 8.640625 -16.847656 8.640625 -14.265625 C 8.640625 -11.679688 8.847656 -9.710938 9.265625 -8.359375 C 9.691406 -7.003906 10.273438 -6.117188 11.015625 -5.703125 C 11.765625 -5.285156 12.828125 -5.078125 14.203125 -5.078125 C 15.578125 -5.078125 16.632812 -5.289062 17.375 -5.71875 C 18.96875 -6.632812 19.765625 -9.476562 19.765625 -14.25 C 19.765625 -19.0625 18.992188 -21.914062 17.453125 -22.8125 C 16.691406 -23.238281 15.609375 -23.453125 14.203125 -23.453125 C 12.796875 -23.453125 11.71875 -23.234375 10.96875 -22.796875 Z M 10.96875 -22.796875 "/></g></g></g><g fill="#022641" fill-opacity="1"><g transform="translate(330.713309, 199.599726)"><g><path d="M 3.375 0 L 3.375 -28.53125 L 9.734375 -28.53125 L 9.53125 -5.484375 L 20.046875 -5.5625 L 20.046875 0 Z M 3.375 0 "/></g></g></g><g fill="#022641" fill-opacity="1"><g transform="translate(350.315679, 199.599726)"><g><path d="M -0.65625 -28.53125 L 21.546875 -28.53125 L 21.546875 -23 L 13.4375 -23.125 L 13.546875 0 L 7.1875 0 L 7.296875 -23.125 L -0.65625 -23 Z M -0.65625 -28.53125 "/></g></g></g><g clip-path="url(#136f0e2ef9)"><g clip-path="url(#ec2aa5f518)"><g clip-path="url(#d6656910f5)"><path fill="#022641" d="M 210.054688 202.207031 C 196.558594 261.851562 130.257812 292.394531 75.121094 268.027344 C 32.070312 250.25 6.1875 200.726562 15.914062 155.199219 C 33.285156 66.976562 152.617188 42.484375 198.507812 122.253906 C 158.921875 64.566406 68.464844 64.105469 32.65625 125.851562 C -19.796875 217.566406 88.84375 314.042969 173.820312 251.421875 C 190.691406 239.367188 203.398438 221.851562 210.054688 202.207031 Z M 210.054688 202.207031 " fill-opacity="1" fill-rule="nonzero"/></g></g></g><g fill="#022641" fill-opacity="1"><g transform="translate(52.626178, 272.100933)"><g><path d="M -3.671875 -161.078125 L 121.671875 -161.078125 L 121.671875 -129.921875 L 75.84375 -130.609375 L 76.53125 0 L 40.5625 0 L 41.25 -130.609375 L -3.671875 -129.921875 Z M -3.671875 -161.078125 "/></g></g></g><g clip-path="url(#7d4b209719)"><g clip-path="url(#2f758e6c10)"><g clip-path="url(#d13e48a1c5)"><path fill="#022641" d="M 208.566406 153.9375 L 212.5625 149.066406 L 229.679688 163.019531 C 230.785156 163.921875 232.421875 163.757812 233.324219 162.652344 C 234.230469 161.550781 234.066406 159.921875 232.960938 159.019531 L 215.84375 145.066406 L 229.066406 128.941406 L 246.179688 142.894531 C 247.289062 143.796875 248.921875 143.632812 249.828125 142.53125 C 250.734375 141.425781 250.570312 139.796875 249.460938 138.894531 L 232.34375 124.945312 L 236.339844 120.070312 C 237.703125 118.410156 237.457031 115.960938 235.789062 114.601562 C 234.332031 113.414062 232.273438 113.449219 230.867188 114.585938 L 212.085938 99.277344 C 206.417969 94.65625 198.0625 95.492188 193.429688 101.144531 L 190.824219 104.320312 C 188.101562 102.757812 183.730469 99.988281 178.554688 95.769531 L 174.242188 92.253906 L 171.5625 95.519531 L 168.882812 98.789062 L 173.195312 102.304688 C 178.371094 106.523438 181.960938 110.246094 184.042969 112.59375 L 181.4375 115.769531 C 176.800781 121.421875 177.640625 129.75 183.3125 134.371094 L 202.089844 149.679688 C 201.253906 151.28125 201.625 153.300781 203.082031 154.488281 C 204.746094 155.847656 207.203125 155.597656 208.566406 153.9375 Z M 208.566406 153.9375 " fill-opacity="1" fill-rule="nonzero"/></g></g></g></svg>