<svg xmlns="http://www.w3.org/2000/svg" xmlns:xlink="http://www.w3.org/1999/xlink" width="500" zoomAndPan="magnify" viewBox="0 0 375 374.999991" height="500" preserveAspectRatio="xMidYMid meet" version="1.0"><defs><g/><clipPath id="cbd2f53b03"><path d="M 28 16 L 324 16 L 324 317 L 28 317 Z M 28 16 " clip-rule="nonzero"/></clipPath><clipPath id="ca5024e837"><path d="M 219.265625 -70.015625 L 388.074219 262.320312 L 73.121094 422.296875 L -95.683594 89.960938 Z M 219.265625 -70.015625 " clip-rule="nonzero"/></clipPath><clipPath id="cd29296307"><path d="M 219.265625 -70.015625 L 388.074219 262.320312 L 73.121094 422.296875 L -95.683594 89.960938 Z M 219.265625 -70.015625 " clip-rule="nonzero"/></clipPath><clipPath id="8dc5ab3f98"><path d="M 247 34 L 369 34 L 369 142 L 247 142 Z M 247 34 " clip-rule="nonzero"/></clipPath><clipPath id="2c941204c2"><path d="M 368.230469 32.703125 L 370.238281 141.433594 L 248.757812 143.675781 L 246.75 34.945312 Z M 368.230469 32.703125 " clip-rule="nonzero"/></clipPath><clipPath id="a8accb02e8"><path d="M 368.230469 32.703125 L 370.238281 141.433594 L 248.757812 143.675781 L 246.75 34.945312 Z M 368.230469 32.703125 " clip-rule="nonzero"/></clipPath></defs><g fill="#ffff" fill-opacity="1"><g transform="translate(63.106342, 367.381464)"><g><path d="M -0.765625 -33.40625 L 25.234375 -33.40625 L 25.234375 -26.9375 L 15.734375 -27.078125 L 15.875 0 L 8.40625 0 L 8.546875 -27.078125 L -0.765625 -26.9375 Z M -0.765625 -33.40625 "/></g></g></g><g fill="#ffff" fill-opacity="1"><g transform="translate(87.628389, 367.381464)"><g><path d="M 3.9375 0 L 3.9375 -33.40625 L 24 -33.40625 L 24 -27.03125 L 11.359375 -27.171875 L 11.171875 -20.046875 L 22.8125 -20.046875 L 22.8125 -13.78125 L 11.171875 -13.78125 L 11.359375 -6.265625 L 24 -6.359375 L 24 0 Z M 3.9375 0 "/></g></g></g><g fill="#ffff" fill-opacity="1"><g transform="translate(113.813753, 367.381464)"><g><path d="M 25.5625 -26.75 C 21.632812 -27.226562 18.625 -27.46875 16.53125 -27.46875 C 14.445312 -27.46875 13.039062 -27.179688 12.3125 -26.609375 C 10.882812 -25.460938 10.171875 -22.007812 10.171875 -16.25 C 10.171875 -13.625 10.398438 -11.46875 10.859375 -9.78125 C 11.316406 -8.101562 11.882812 -7.007812 12.5625 -6.5 C 13.25 -6 14.265625 -5.75 15.609375 -5.75 C 16.953125 -5.75 18.429688 -5.960938 20.046875 -6.390625 C 21.660156 -6.816406 23.5 -7.441406 25.5625 -8.265625 L 27.703125 -2.65625 C 27.316406 -2.40625 26.773438 -2.097656 26.078125 -1.734375 C 25.390625 -1.367188 24.015625 -0.882812 21.953125 -0.28125 C 19.890625 0.320312 17.863281 0.625 15.875 0.625 C 11.625 0.625 8.3125 -0.738281 5.9375 -3.46875 C 3.5625 -6.195312 2.375 -10.503906 2.375 -16.390625 C 2.375 -21.960938 3.257812 -26.128906 5.03125 -28.890625 C 5.851562 -30.191406 6.890625 -31.226562 8.140625 -32 C 9.398438 -32.78125 10.703125 -33.3125 12.046875 -33.59375 C 13.390625 -33.875 14.804688 -34.015625 16.296875 -34.015625 C 17.785156 -34.015625 19.535156 -33.894531 21.546875 -33.65625 C 23.554688 -33.425781 25.164062 -33.148438 26.375 -32.828125 Z M 25.5625 -26.75 "/></g></g></g><g fill="#ffff" fill-opacity="1"><g transform="translate(143.183192, 367.381464)"><g><path d="M 3.9375 -33.40625 L 13.25 -33.40625 L 23.5625 -9.6875 L 23.859375 -9.6875 L 23.28125 -33.40625 L 30.171875 -33.40625 L 30.171875 0 L 20.859375 0 L 10.546875 -23.703125 L 10.265625 -23.703125 L 10.828125 0 L 3.9375 0 Z M 3.9375 -33.40625 "/></g></g></g><g fill="#ffff" fill-opacity="1"><g transform="translate(177.209916, 367.381464)"><g><path d="M 22.15625 -0.140625 C 20.5625 0.367188 18.71875 0.625 16.625 0.625 C 14.539062 0.625 12.695312 0.367188 11.09375 -0.140625 C 9.5 -0.648438 8.019531 -1.519531 6.65625 -2.75 C 3.800781 -5.289062 2.375 -9.960938 2.375 -16.765625 C 2.375 -24.429688 4.335938 -29.503906 8.265625 -31.984375 C 10.390625 -33.335938 13.175781 -34.015625 16.625 -34.015625 C 22.039062 -34.015625 25.875 -32.304688 28.125 -28.890625 C 29.96875 -26.097656 30.890625 -22.054688 30.890625 -16.765625 C 30.890625 -9.960938 29.460938 -5.289062 26.609375 -2.75 C 25.242188 -1.519531 23.757812 -0.648438 22.15625 -0.140625 Z M 12.84375 -26.703125 C 11.976562 -26.191406 11.304688 -25.148438 10.828125 -23.578125 C 10.359375 -22.015625 10.125 -19.71875 10.125 -16.6875 C 10.125 -13.664062 10.367188 -11.363281 10.859375 -9.78125 C 11.347656 -8.195312 12.023438 -7.160156 12.890625 -6.671875 C 13.765625 -6.179688 15.007812 -5.9375 16.625 -5.9375 C 18.238281 -5.9375 19.476562 -6.191406 20.34375 -6.703125 C 22.207031 -7.773438 23.140625 -11.097656 23.140625 -16.671875 C 23.140625 -22.316406 22.238281 -25.660156 20.4375 -26.703125 C 19.539062 -27.210938 18.269531 -27.46875 16.625 -27.46875 C 14.976562 -27.46875 13.71875 -27.210938 12.84375 -26.703125 Z M 12.84375 -26.703125 "/></g></g></g><g fill="#ffff" fill-opacity="1"><g transform="translate(210.476272, 367.381464)"><g><path d="M 0.28125 -33.40625 L 8.125 -33.40625 L 14.0625 -6.984375 L 14.34375 -6.984375 L 20.296875 -33.40625 L 28.171875 -33.40625 L 18.71875 0 L 9.59375 0 Z M 0.28125 -33.40625 "/></g></g></g><g fill="#ffff" fill-opacity="1"><g transform="translate(239.41799, 367.381464)"><g><path d="M 22.15625 -0.140625 C 20.5625 0.367188 18.71875 0.625 16.625 0.625 C 14.539062 0.625 12.695312 0.367188 11.09375 -0.140625 C 9.5 -0.648438 8.019531 -1.519531 6.65625 -2.75 C 3.800781 -5.289062 2.375 -9.960938 2.375 -16.765625 C 2.375 -24.429688 4.335938 -29.503906 8.265625 -31.984375 C 10.390625 -33.335938 13.175781 -34.015625 16.625 -34.015625 C 22.039062 -34.015625 25.875 -32.304688 28.125 -28.890625 C 29.96875 -26.097656 30.890625 -22.054688 30.890625 -16.765625 C 30.890625 -9.960938 29.460938 -5.289062 26.609375 -2.75 C 25.242188 -1.519531 23.757812 -0.648438 22.15625 -0.140625 Z M 12.84375 -26.703125 C 11.976562 -26.191406 11.304688 -25.148438 10.828125 -23.578125 C 10.359375 -22.015625 10.125 -19.71875 10.125 -16.6875 C 10.125 -13.664062 10.367188 -11.363281 10.859375 -9.78125 C 11.347656 -8.195312 12.023438 -7.160156 12.890625 -6.671875 C 13.765625 -6.179688 15.007812 -5.9375 16.625 -5.9375 C 18.238281 -5.9375 19.476562 -6.191406 20.34375 -6.703125 C 22.207031 -7.773438 23.140625 -11.097656 23.140625 -16.671875 C 23.140625 -22.316406 22.238281 -25.660156 20.4375 -26.703125 C 19.539062 -27.210938 18.269531 -27.46875 16.625 -27.46875 C 14.976562 -27.46875 13.71875 -27.210938 12.84375 -26.703125 Z M 12.84375 -26.703125 "/></g></g></g><g fill="#ffff" fill-opacity="1"><g transform="translate(272.684346, 367.381464)"><g><path d="M 3.9375 0 L 3.9375 -33.40625 L 11.40625 -33.40625 L 11.171875 -6.421875 L 23.46875 -6.515625 L 23.46875 0 Z M 3.9375 0 "/></g></g></g><g fill="#ffff" fill-opacity="1"><g transform="translate(295.638128, 367.381464)"><g><path d="M -0.765625 -33.40625 L 25.234375 -33.40625 L 25.234375 -26.9375 L 15.734375 -27.078125 L 15.875 0 L 8.40625 0 L 8.546875 -27.078125 L -0.765625 -26.9375 Z M -0.765625 -33.40625 "/></g></g></g><g clip-path="url(#cbd2f53b03)"><g clip-path="url(#ca5024e837)"><g clip-path="url(#cd29296307)"><path fill="#ffff" d="M 323.453125 189.144531 C 314.191406 279.433594 221.867188 336.351562 136.214844 310.378906 C 69.566406 291.933594 22.566406 223.640625 28.796875 154.824219 C 38.679688 21.742188 210.28125 -35.800781 292.171875 73.441406 C 223.515625 -4.414062 90.042969 11.183594 48.25 108.582031 C -12.746094 253.125 164.65625 375.691406 278.800781 268.15625 C 301.53125 247.367188 317.144531 219.277344 323.453125 189.144531 Z M 323.453125 189.144531 " fill-opacity="1" fill-rule="nonzero"/></g></g></g><g fill="#ffff" fill-opacity="1"><g transform="translate(82.614793, 300.376071)"><g><path d="M -5.453125 -239.375 L 180.8125 -239.375 L 180.8125 -193.078125 L 112.703125 -194.09375 L 113.734375 0 L 60.265625 0 L 61.296875 -194.09375 L -5.453125 -193.078125 Z M -5.453125 -239.375 "/></g></g></g><g clip-path="url(#8dc5ab3f98)"><g clip-path="url(#2c941204c2)"><g clip-path="url(#a8accb02e8)"><path fill="#ffff" d="M 306.425781 126.941406 L 312.363281 119.660156 L 337.800781 140.519531 C 339.449219 141.871094 341.875 141.625 343.21875 139.972656 C 344.566406 138.324219 344.324219 135.890625 342.675781 134.539062 L 317.238281 113.683594 L 336.882812 89.578125 L 362.320312 110.441406 C 363.96875 111.789062 366.394531 111.546875 367.738281 109.894531 C 369.085938 108.246094 368.84375 105.8125 367.195312 104.464844 L 341.753906 83.605469 L 347.691406 76.324219 C 349.71875 73.835938 349.351562 70.175781 346.875 68.144531 C 344.707031 66.367188 341.648438 66.425781 339.558594 68.125 L 311.644531 45.238281 C 303.21875 38.328125 290.804688 39.578125 283.917969 48.023438 L 280.050781 52.769531 C 276.003906 50.429688 269.507812 46.289062 261.8125 39.984375 L 255.402344 34.726562 L 251.421875 39.609375 L 247.441406 44.496094 L 253.851562 49.753906 C 261.539062 56.058594 266.878906 61.625 269.96875 65.136719 L 266.101562 69.878906 C 259.214844 78.328125 260.460938 90.78125 268.886719 97.691406 L 296.800781 120.578125 C 295.554688 122.96875 296.105469 125.992188 298.273438 127.765625 C 300.746094 129.796875 304.398438 129.425781 306.425781 126.941406 Z M 306.425781 126.941406 " fill-opacity="1" fill-rule="nonzero"/></g></g></g></svg>