<svg width="38" height="38" viewBox="0 0 38 38" fill="none"
                        xmlns="http://www.w3.org/2000/svg">
                        <path
                            d="M27.8668 10.0067C26.7061 8.83725 25.3245 7.91029 23.8024 7.27966C22.2802 6.64903 20.6478 6.32736 19.0002 6.33333C16.7976 6.33549 14.6341 6.91632 12.7265 8.01765C10.819 9.11899 9.23429 10.7022 8.13112 12.6087C7.02795 14.5151 6.44506 16.6781 6.44078 18.8806C6.43652 21.0834 7.01105 23.2484 8.10683 25.1592L6.3335 31.6667L12.9835 29.925C14.8198 30.9466 16.8831 31.4911 18.9843 31.5083C22.3247 31.5085 25.5298 30.1891 27.902 27.8375C30.2743 25.4861 31.6217 22.2927 31.651 18.9525C31.6399 17.2857 31.2998 15.6376 30.6505 14.1024C30.0012 12.5673 29.0551 11.1755 27.8668 10.0067ZM19.0002 29.3392C17.1282 29.3404 15.2904 28.8373 13.6802 27.8825L13.3002 27.645L9.35766 28.69L10.4027 24.8425L10.1493 24.4467C8.80231 22.2723 8.29958 19.6793 8.73639 17.1589C9.1732 14.6386 10.5192 12.3661 12.5194 10.7718C14.5196 9.17746 17.0351 8.37213 19.5893 8.50834C22.1436 8.64454 24.5592 9.71283 26.3785 11.5108C28.3672 13.4555 29.5056 16.1081 29.5452 18.8892C29.5201 21.6694 28.398 24.3271 26.4231 26.2843C24.4484 28.2413 21.7805 29.3393 19.0002 29.3392ZM24.716 21.5175C24.3993 21.3592 22.8635 20.5992 22.5785 20.5042C22.2935 20.4092 22.0718 20.3458 21.866 20.6625C21.5563 21.087 21.2232 21.4939 20.8685 21.8817C20.6943 22.1033 20.5043 22.1192 20.1877 21.8817C18.3822 21.1682 16.878 19.8541 15.9285 18.1608C15.596 17.6067 16.2452 17.6383 16.8468 16.4508C16.8913 16.3652 16.9144 16.2702 16.9144 16.1738C16.9144 16.0773 16.8913 15.9823 16.8468 15.8967C16.8468 15.7383 16.1343 14.1867 15.881 13.5692C15.6277 12.9517 15.3743 13.0467 15.1685 13.0308H14.551C14.391 13.0333 14.2334 13.0699 14.0887 13.1381C13.9439 13.2064 13.8155 13.3048 13.7118 13.4267C13.3566 13.7721 13.0795 14.1897 12.8992 14.6513C12.7189 15.1129 12.6397 15.6077 12.6668 16.1025C12.7661 17.287 13.2122 18.4159 13.9493 19.3483C15.2986 21.3684 17.1478 23.0047 19.3168 24.0983C20.4545 24.7624 21.7765 25.0401 23.0852 24.89C23.5209 24.8036 23.9337 24.6264 24.2964 24.3699C24.6593 24.1135 24.9641 23.7836 25.191 23.4017C25.4013 22.9355 25.4674 22.4173 25.381 21.9133C25.2385 21.755 25.0327 21.6758 24.716 21.5175Z"
                            fill="#022641" />
                    </svg>